HIERARCHY
ROOT Hips
{
	OFFSET -0.001795 -0.223333 0.028219
	CHANNELS 6 Xposition Yposition Zposition Zrotation Yrotation Xrotation 
	JOINT LeftUpLeg
	{
		OFFSET 0.069520 -0.091406 -0.006815
		CHANNELS 3 Zrotation Yrotation Xrotation
		JOINT LeftLeg
		{
			OFFSET 0.034277 -0.375199 -0.004496
			CHANNELS 3 Zrotation Yrotation Xrotation
			JOINT LeftFoot
			{
				OFFSET -0.013596 -0.397961 -0.043693
				CHANNELS 3 Zrotation Yrotation Xrotation
				JOINT LeftToe
				{
					OFFSET 0.026358 -0.055791 0.119288
					CHANNELS 3 Zrotation Yrotation Xrotation
					End Site
					{
						OFFSET 0.000000 0.000000 0.000000
					}
				}
			}
		}
	}
	JOINT RightUpLeg
	{
		OFFSET -0.067670 -0.090522 -0.004320
		CHANNELS 3 Zrotation Yrotation Xrotation
		JOINT RightLeg
		{
			OFFSET -0.038290 -0.382569 -0.008850
			CHANNELS 3 Zrotation Yrotation Xrotation
			JOINT RightFoot
			{
				OFFSET 0.015774 -0.398415 -0.042312
				CHANNELS 3 Zrotation Yrotation Xrotation
				JOINT RightToe
				{
					OFFSET -0.025372 -0.048144 0.123348
					CHANNELS 3 Zrotation Yrotation Xrotation
					End Site
					{
						OFFSET 0.000000 0.000000 0.000000
					}
				}
			}
		}
	}
	JOINT Spine
	{
		OFFSET -0.002533 0.108963 -0.026696
		CHANNELS 3 Zrotation Yrotation Xrotation
		JOINT Spine1
		{
			OFFSET 0.005487 0.135180 0.001092
			CHANNELS 3 Zrotation Yrotation Xrotation
			JOINT Spine2
			{
				OFFSET 0.001457 0.052922 0.025425
				CHANNELS 3 Zrotation Yrotation Xrotation
				JOINT Neck
				{
					OFFSET -0.002778 0.213870 -0.042857
					CHANNELS 3 Zrotation Yrotation Xrotation
					JOINT Head
					{
						OFFSET 0.005152 0.064970 0.051349
						CHANNELS 3 Zrotation Yrotation Xrotation
						End Site
						{
							OFFSET 0.000000 0.000000 0.000000
						}
					}
				}
				JOINT LeftShoulder
				{
					OFFSET 0.078845 0.121749 -0.034090
					CHANNELS 3 Zrotation Yrotation Xrotation
					JOINT LeftArm
					{
						OFFSET 0.090977 0.030469 -0.008868
						CHANNELS 3 Zrotation Yrotation Xrotation
						JOINT LeftForeArm
						{
							OFFSET 0.259612 -0.012772 -0.027456
							CHANNELS 3 Zrotation Yrotation Xrotation
							JOINT LeftHand
							{
								OFFSET 0.249234 0.008986 -0.001171
								CHANNELS 3 Zrotation Yrotation Xrotation
								End Site
								{
									OFFSET 0.000000 0.000000 0.000000
								}
							}
						}
					}
				}
				JOINT RightShoulder
				{
					OFFSET -0.081759 0.118833 -0.038615
					CHANNELS 3 Zrotation Yrotation Xrotation
					JOINT RightArm
					{
						OFFSET -0.096012 0.032551 -0.009143
						CHANNELS 3 Zrotation Yrotation Xrotation
						JOINT RightForeArm
						{
							OFFSET -0.253742 -0.013329 -0.021401
							CHANNELS 3 Zrotation Yrotation Xrotation
							JOINT RightHand
							{
								OFFSET -0.255298 0.007772 -0.005559
								CHANNELS 3 Zrotation Yrotation Xrotation
								End Site
								{
									OFFSET 0.000000 0.000000 0.000000
								}
							}
						}
					}
				}
			}
		}
	}
}
MOTION
Frames: 11
Frame Time: 0.050000
-0.038580 0.923536 0.428279 3.493613 -3.830197 -0.060427 7.311968 -0.197343 -6.281570 -4.376629 0.542259 2.947077 4.742273 11.745721 10.825716 0.000000 0.000000 0.000000 -16.128707 0.147117 -11.193701 8.515267 -1.082875 8.683081 -4.413057 -13.627618 11.689997 0.000000 0.000000 0.000000 8.744431 -4.162834 38.868357 -3.322664 1.361241 -25.843477 -2.892606 10.278860 21.376844 17.691822 -4.525509 -37.421514 0.000000 0.000000 0.000000 -15.334649 -25.713861 9.899413 -35.921145 -21.490563 0.784182 -25.155038 -81.053318 23.406961 0.000000 0.000000 0.000000 33.050408 13.099238 10.686640 41.790406 41.735733 7.763432 -5.374593 45.574271 0.677789 0.000000 0.000000 0.000000 
-0.039075 0.922698 0.427929 3.456075 -3.761682 0.072654 7.342973 -0.208725 -6.648292 -4.350380 0.541779 3.464533 4.747708 11.722146 10.557450 0.000000 0.000000 0.000000 -15.988105 0.139834 -11.656004 8.338931 -1.068171 9.165179 -4.453281 -13.636417 11.349897 0.000000 0.000000 0.000000 8.859533 -4.235559 39.016985 -3.141121 1.319985 -25.940320 -2.782421 9.929663 21.403706 17.688431 -4.627814 -37.111552 0.000000 0.000000 0.000000 -14.623257 -26.211838 10.148680 -35.758181 -22.516826 1.017566 -14.459051 -80.444557 14.138083 0.000000 0.000000 0.000000 33.247638 13.064976 10.551285 43.122592 41.503209 8.115999 -4.210664 46.632501 1.218352 0.000000 0.000000 0.000000 
-0.039455 0.922589 0.427600 3.479734 -3.746781 0.245451 7.421187 -0.217685 -7.040616 -4.489280 0.564329 3.665194 4.855700 11.919043 10.694906 0.000000 0.000000 0.000000 -16.158932 0.125353 -11.930500 8.451800 -1.093626 9.337143 -4.519459 -13.773764 11.448799 0.000000 0.000000 0.000000 8.917133 -4.268589 39.058175 -3.067070 1.302527 -25.905926 -2.600939 9.731736 21.399777 17.535752 -4.576571 -37.102021 0.000000 0.000000 0.000000 -13.839856 -26.364871 10.184902 -35.399015 -23.746520 1.288722 -4.884271 -79.951565 6.026710 0.000000 0.000000 0.000000 33.233616 12.810192 10.284265 44.067048 40.718215 8.102417 -3.666518 48.220824 1.573756 0.000000 0.000000 0.000000 
-0.039714 0.923072 0.427125 3.513757 -3.508131 0.557440 7.314753 -0.246225 -7.494482 -4.407983 0.547959 3.628999 4.798102 11.885239 11.007297 0.000000 0.000000 0.000000 -16.159629 0.122061 -11.965213 8.232609 -1.051215 8.899088 -4.490547 -13.725251 11.610003 0.000000 0.000000 0.000000 8.944312 -4.296278 38.777450 -2.876177 1.259909 -25.801686 -2.639796 9.499932 21.426768 17.547445 -4.746134 -36.429171 0.000000 0.000000 0.000000 -13.205047 -26.668020 10.294877 -35.032488 -24.575036 1.449696 2.356279 -79.624304 0.008755 0.000000 0.000000 0.000000 33.512501 12.600402 10.127933 44.445226 40.088465 7.946010 -3.210620 49.368722 1.864123 0.000000 0.000000 0.000000 
-0.039812 0.923538 0.426195 3.485592 -3.514330 0.719976 7.388485 -0.251999 -7.793019 -4.347954 0.539317 3.709620 4.673654 11.718252 11.279228 0.000000 0.000000 0.000000 -16.161863 0.121677 -12.152056 8.151464 -1.040882 9.042779 -4.271633 -13.311660 11.537525 0.000000 0.000000 0.000000 9.009917 -4.328575 38.803989 -2.776650 1.236077 -25.734510 -2.636393 9.442826 21.640358 17.598648 -4.795970 -36.390784 0.000000 0.000000 0.000000 -12.354028 -26.853813 10.301288 -34.794423 -25.589489 1.646450 7.887050 -79.472310 -4.561554 0.000000 0.000000 0.000000 33.291318 12.540340 10.024632 44.734769 39.887954 7.949262 -3.404968 49.523996 1.800989 0.000000 0.000000 0.000000 
-0.039631 0.923722 0.424593 3.534575 -3.334654 1.074531 7.286250 -0.284915 -8.426800 -4.395255 0.545949 3.961936 4.655207 11.697109 11.242084 0.000000 0.000000 0.000000 -16.217644 0.112351 -12.390845 8.006733 -1.014279 8.765630 -4.197728 -13.166438 11.583953 0.000000 0.000000 0.000000 9.113053 -4.401222 38.767682 -2.814664 1.244265 -25.521913 -2.816271 9.133613 21.656460 17.437736 -4.828065 -35.992997 0.000000 0.000000 0.000000 -11.646219 -27.302383 10.471882 -34.182236 -26.620628 1.826253 16.198159 -79.023474 -11.318210 0.000000 0.000000 0.000000 32.772266 12.589122 9.884582 44.953060 40.121390 8.166467 -3.987121 49.204054 1.515554 0.000000 0.000000 0.000000 
-0.039160 0.923437 0.422329 3.492642 -3.286743 1.261941 7.417153 -0.294250 -9.020535 -4.444723 0.555546 4.265289 4.556812 11.524359 11.136059 0.000000 0.000000 0.000000 -16.176253 0.104361 -12.802420 7.974023 -1.018484 9.100631 -4.090712 -12.927630 11.380932 0.000000 0.000000 0.000000 9.207948 -4.504632 39.252282 -2.981913 1.281772 -25.639368 -2.897252 8.733357 21.794009 17.265949 -4.741976 -36.232438 0.000000 0.000000 0.000000 -11.159442 -27.584202 10.611882 -33.837003 -27.870737 2.073699 22.107467 -78.862087 -16.036455 0.000000 0.000000 0.000000 32.247344 12.790271 9.789245 44.953187 40.665918 8.454822 -4.714692 48.157333 1.107066 0.000000 0.000000 0.000000 
-0.038589 0.923058 0.419775 3.544378 -3.141158 1.556017 7.305626 -0.323846 -9.542033 -4.533117 0.568102 4.378695 4.543917 11.488907 10.957155 0.000000 0.000000 0.000000 -16.346457 0.078011 -13.254012 7.983165 -1.023189 9.041972 -3.967781 -12.747163 11.703700 0.000000 0.000000 0.000000 9.217756 -4.566588 39.482703 -2.930363 1.269969 -25.429549 -3.151712 8.396397 21.861705 16.832117 -4.488330 -36.559366 0.000000 0.000000 0.000000 -10.950192 -28.152009 10.895358 -33.111364 -29.368439 2.349954 27.339933 -78.164111 -20.034506 0.000000 0.000000 0.000000 31.685179 13.088178 9.807843 44.747422 41.466541 8.786433 -6.031260 46.578077 0.460936 0.000000 0.000000 0.000000 
-0.038035 0.922881 0.417261 3.574335 -2.918206 1.806708 7.224867 -0.348285 -9.894562 -4.604340 0.574044 4.244667 4.622437 11.632414 10.931576 0.000000 0.000000 0.000000 -16.290948 0.064832 -13.590811 7.947701 -1.023547 9.032243 -3.909804 -12.613633 11.681756 0.000000 0.000000 0.000000 9.221422 -4.645209 39.763919 -3.026387 1.290851 -25.294011 -3.457747 8.007759 21.758895 16.812380 -4.460499 -36.733901 0.000000 0.000000 0.000000 -10.632682 -28.628670 11.114605 -32.786166 -30.527901 2.594237 32.925309 -78.339161 -24.626278 0.000000 0.000000 0.000000 30.990683 13.444975 9.841981 44.646388 42.182644 9.131959 -6.865139 44.660078 0.045275 0.000000 0.000000 0.000000 
-0.037636 0.923022 0.415001 3.566283 -2.733496 1.902638 7.259657 -0.350464 -9.868282 -4.667054 0.577432 3.922039 4.636099 11.694253 11.086241 0.000000 0.000000 0.000000 -16.205989 0.061314 -13.639049 7.980108 -1.029371 8.819061 -3.804344 -12.444623 11.917818 0.000000 0.000000 0.000000 9.255983 -4.720250 40.009432 -3.157357 1.322274 -25.348733 -3.652639 7.809216 21.831458 16.895927 -4.489637 -36.863068 0.000000 0.000000 0.000000 -10.663828 -29.028597 11.323217 -31.849253 -31.553392 2.696594 38.537230 -78.605327 -29.416792 0.000000 0.000000 0.000000 30.571790 13.667056 9.888795 44.337359 42.937615 9.377954 -7.394129 43.505985 -0.199199 0.000000 0.000000 0.000000 
-0.037299 0.923172 0.413195 3.505878 -2.375940 1.993368 7.258478 -0.360262 -9.908178 -4.709109 0.575949 3.674454 4.571424 11.648551 11.264673 0.000000 0.000000 0.000000 -16.127649 0.043664 -13.754855 8.158417 -1.069835 8.765278 -3.880162 -12.580511 12.111190 0.000000 0.000000 0.000000 9.181465 -4.793240 40.342035 -3.103537 1.314118 -25.517045 -3.871696 7.678629 21.708734 16.893978 -4.428382 -37.074356 0.000000 0.000000 0.000000 -10.417821 -29.285275 11.390239 -31.219899 -32.288693 2.773296 44.852047 -79.526094 -35.341135 0.000000 0.000000 0.000000 30.236899 13.860228 9.990964 43.998455 43.631104 9.585378 -7.289292 42.417297 -0.191569 0.000000 0.000000 0.000000 
